<svg width="604" height="39" viewBox="0 0 604 39" fill="none" xmlns="http://www.w3.org/2000/svg">
<path d="M13.7969 38.1408C10.4689 38.1465 7.25077 37.2349 4.73831 35.5747C2.22585 33.9146 0.589069 31.6183 0.13103 29.1108C-0.327009 26.6034 0.424688 24.0546 2.24693 21.9362C4.06916 19.8179 6.83865 18.2734 10.0426 17.5887C15.4488 16.4274 144.02 -10.7214 297.632 4.75686C398.358 14.9043 471.804 15.6564 515.666 14.5045C563.22 13.2575 587.185 9.56407 587.423 9.52599C589.193 9.24535 591.018 9.23264 592.795 9.48858C594.571 9.74452 596.264 10.2641 597.776 11.0177C599.289 11.7712 600.591 12.744 601.609 13.8805C602.627 15.0169 603.341 16.2948 603.71 17.6411C604.079 18.9875 604.096 20.3759 603.759 21.7271C603.423 23.0784 602.74 24.366 601.749 25.5165C600.759 26.6669 599.48 27.6577 597.986 28.4322C596.492 29.2067 594.812 29.7497 593.042 30.0304C589.012 30.6682 492.14 45.4705 293.952 25.5183C146.285 10.6397 18.7525 37.4744 17.4885 37.741C16.2883 38.004 15.0459 38.1385 13.7969 38.1408V38.1408Z" fill="#00A773"/>
</svg>
